<svg xmlns="http://www.w3.org/2000/svg" viewBox="0 0 490 84" role="img" aria-label="ALLEYOOP">
  <g fill="#F2E9C7"><path d="M20.10 75.70L4.50 75.70L33 6L43.60 6L72.10 75.70L56.50 75.70L51.80 63L24.90 63L20.10 75.70M29.70 50.20L47 50.20L38.40 27.20"/><path d="M117.80 75.70L74.40 75.70L74.40 6L88.70 6L88.70 62.90L117.80 62.90"/><path d="M164 75.70L120.60 75.70L120.60 6L134.90 6L134.90 62.90L164 62.90"/><path d="M213.40 75.70L166.80 75.70L166.80 6L213.40 6L213.40 18.80L181.10 18.80L181.10 33.50L211.50 33.50L211.50 46.30L181.10 46.30L181.10 62.90L213.40 62.90"/><path d="M252.40 75.70L238.10 75.70L238.10 48.30L213.60 6L230 6L244.90 34.10L260.30 6L276.60 6L252.40 48.30"/><path d="M449.30 75.70L435.10 75.70L435.10 6L458.90 6Q470.80 6 476.85 11.05Q482.90 16.10 482.90 26.30Q482.90 36.60 476.75 41.95Q470.60 47.30 458.90 47.30L449.30 47.30L449.30 75.70M449.30 18.80L449.30 34.50L457.40 34.50Q462.70 34.50 465.60 32.80Q468.50 31.10 468.50 26.50Q468.50 22.10 465.75 20.45Q463 18.80 457.40 18.80"/></g>
  <g stroke="#F2E9C7"><circle cx="311.8" cy="42.0" r="33.1" fill="none" stroke-width="11.799999999999999"/></g>
  <g stroke="#F2E9C7"><circle cx="391.0" cy="42.0" r="33.1" fill="none" stroke-width="11.799999999999999"/></g>
  <g stroke="#EE9933" fill="none"><path d="M 285.3 38.7 Q 351.4 -41.1 417.5 38.7" stroke-width="3.2"/></g>
  <circle cx="285.3" cy="38.7" r="4.6" fill="#EE9933"/>
</svg>